<svg xmlns="http://www.w3.org/2000/svg" viewBox="0 0 150 100">
  <!-- Fondo base -->
  <rect width="150" height="100" fill="#FFD700"/>

  <!-- Franjas rojas -->
  <rect width="150" height="12.5" y="0" fill="#DA020E"/>
  <rect width="150" height="12.5" y="25" fill="#DA020E"/>
  <rect width="150" height="12.5" y="50" fill="#DA020E"/>
  <rect width="150" height="12.5" y="75" fill="#DA020E"/>

  <!-- Franja azul vertical -->
  <rect width="30" height="100" x="0" fill="#0052A3"/>

  <!-- Corona (simplificada) -->
  <g transform="translate(15, 35)">
    <!-- Base de la corona -->
    <rect x="-8" y="15" width="16" height="4" fill="#FFD700" stroke="#8B4513" stroke-width="0.5"/>

    <!-- Puntas de la corona -->
    <polygon points="0,15 -3,10 -1,10 0,12 1,10 3,10" fill="#FFD700" stroke="#8B4513" stroke-width="0.5"/>

    <!-- Centro decorativo -->
    <circle cx="0" cy="17" r="1.5" fill="#DA020E"/>
  </g>

  <!-- Ramas decorativas (simplificadas) -->
  <g transform="translate(15, 55)">
    <!-- Rama izquierda -->
    <path d="M -6,0 Q -8,2 -6,4 Q -4,2 -6,0" fill="#228B22" stroke="#006400" stroke-width="0.3"/>
    <!-- Rama derecha -->
    <path d="M 6,0 Q 8,2 6,4 Q 4,2 6,0" fill="#228B22" stroke="#006400" stroke-width="0.3"/>
  </g>
</svg>